# xmcd CD database file
#
# Track frame offsets:
#	150
#	16689
#	32541
#	49893
#	65395
#	79472
#	100124
#	122826
#	140366
#	159493
#	177970
#	194372
#	210999
#	227501
#	249040
#
# Disc length: 3608 seconds
#
# Revision: 2
# Processed by: cddbd v1.5.2PL0 Copyright (c) Steve Scherf et al.
# Submitted via: CDex 1.70beta2
#
DISCID=b80e160f
DTITLE=Various Artist - 青春歌年鑑 ’79 BEST 30 Disc 02
DYEAR=1979
DGENRE=歌謡曲
TTITLE0=燃えろいい女 - ツイスト
TTITLE1=銀河鉄道999 - ゴダイゴ
TTITLE2=美・サイレント - 山口  百恵
TTITLE3=みずいろの雨 - 八神  純子
TTITLE4=愛の水中花 - 松坂  慶子
TTITLE5=虹とスニーカーの頃 - チューリップ
TTITLE6=窓 - 松山  千春
TTITLE7=たそがれマイ・ラブ - 大橋  純子
TTITLE8=男達のメロディー - SHOGUN
TTITLE9=愛の嵐 - 山口  百恵
TTITLE10=マイレディ - 郷  ひろみ
TTITLE11=私のハートはストップモーション - 桑江  知子
TTITLE12=とまどいトワイライト - 豊島  たつみ
TTITLE13=陽はまた昇る - 谷村  新司
TTITLE14=しなやかに歌って - 山口  百恵
EXTD=YEAR: 1979
EXTT0=
EXTT1=
EXTT2=
EXTT3=
EXTT4=
EXTT5=
EXTT6=
EXTT7=
EXTT8=
EXTT9=
EXTT10=
EXTT11=
EXTT12=
EXTT13=
EXTT14=
PLAYORDER=
